# xmcd
#
# Track frame offsets:
#	150
#	12692
#	26431
#	39144
#	51089
#	64079
#	76851
#	93670
#	109848
#	122367
#
# Disc length: 1819 seconds
#
# Revision: 1
# Processed by: cddbd v1.5.2PL0 Copyright (c) Steve Scherf et al.
# Submitted via: audiograbber 1.83.01
#
DISCID=7407190a
DTITLE=Joan Sebastian - Coleccion de Oro
DYEAR=2003
DGENRE=Country
TTITLE0=Aunque me Duela el Alma
TTITLE1=Me Enamore de Ti
TTITLE2=Experto en Fracasos
TTITLE3=Desaires
TTITLE4=Final Final
TTITLE5=Guitarra Cuando Yo Muera
TTITLE6=Que no te Asombre
TTITLE7=El Precio
TTITLE8=Ahora Si Va en Serio
TTITLE9=Como tu Decidas
EXTD=
EXTT0=
EXTT1=
EXTT2=
EXTT3=
EXTT4=
EXTT5=
EXTT6=
EXTT7=
EXTT8=
EXTT9=
PLAYORDER=
